<svg xmlns="http://www.w3.org/2000/svg" xmlns:xlink="http://www.w3.org/1999/xlink" width="500" zoomAndPan="magnify" viewBox="0 0 375 374.999991" height="500" preserveAspectRatio="xMidYMid meet" version="1.0"><defs><clipPath id="fbd3d03a57"><path d="M 3.558594 3.558594 L 371.441406 3.558594 L 371.441406 371.441406 L 3.558594 371.441406 Z M 3.558594 3.558594 " clip-rule="nonzero"/></clipPath><clipPath id="a4629c95a1"><path d="M 187.5 3.558594 C 85.910156 3.558594 3.558594 85.910156 3.558594 187.5 C 3.558594 289.089844 85.910156 371.441406 187.5 371.441406 C 289.089844 371.441406 371.441406 289.089844 371.441406 187.5 C 371.441406 85.910156 289.089844 3.558594 187.5 3.558594 Z M 187.5 3.558594 " clip-rule="nonzero"/></clipPath><clipPath id="feb4915d2c"><path d="M 0.558594 0.558594 L 368.441406 0.558594 L 368.441406 368.441406 L 0.558594 368.441406 Z M 0.558594 0.558594 " clip-rule="nonzero"/></clipPath><clipPath id="bfeca13f4d"><path d="M 184.5 0.558594 C 82.910156 0.558594 0.558594 82.910156 0.558594 184.5 C 0.558594 286.089844 82.910156 368.441406 184.5 368.441406 C 286.089844 368.441406 368.441406 286.089844 368.441406 184.5 C 368.441406 82.910156 286.089844 0.558594 184.5 0.558594 Z M 184.5 0.558594 " clip-rule="nonzero"/></clipPath><linearGradient x1="128" gradientTransform="matrix(1.437045, 0, 0, 1.437045, 0.558196, 0.558191)" y1="0.00000000334019" x2="128" gradientUnits="userSpaceOnUse" y2="256" id="6893bddb2a"><stop stop-opacity="1" stop-color="rgb(0%, 0%, 0%)" offset="0"/><stop stop-opacity="1" stop-color="rgb(0.175476%, 0.175476%, 0.175476%)" offset="0.0078125"/><stop stop-opacity="1" stop-color="rgb(0.526428%, 0.526428%, 0.526428%)" offset="0.015625"/><stop stop-opacity="1" stop-color="rgb(0.878906%, 0.878906%, 0.878906%)" offset="0.0234375"/><stop stop-opacity="1" stop-color="rgb(1.231384%, 1.231384%, 1.231384%)" offset="0.03125"/><stop stop-opacity="1" stop-color="rgb(1.583862%, 1.583862%, 1.583862%)" offset="0.0390625"/><stop stop-opacity="1" stop-color="rgb(1.93634%, 1.93634%, 1.93634%)" offset="0.046875"/><stop stop-opacity="1" stop-color="rgb(2.288818%, 2.288818%, 2.288818%)" offset="0.0546875"/><stop stop-opacity="1" stop-color="rgb(2.641296%, 2.641296%, 2.641296%)" offset="0.0625"/><stop stop-opacity="1" stop-color="rgb(2.993774%, 2.993774%, 2.993774%)" offset="0.0703125"/><stop stop-opacity="1" stop-color="rgb(3.346252%, 3.346252%, 3.346252%)" offset="0.078125"/><stop stop-opacity="1" stop-color="rgb(3.69873%, 3.69873%, 3.69873%)" offset="0.0859375"/><stop stop-opacity="1" stop-color="rgb(4.051208%, 4.051208%, 4.051208%)" offset="0.09375"/><stop stop-opacity="1" stop-color="rgb(4.402161%, 4.402161%, 4.402161%)" offset="0.101562"/><stop stop-opacity="1" stop-color="rgb(4.754639%, 4.754639%, 4.754639%)" offset="0.109375"/><stop stop-opacity="1" stop-color="rgb(5.107117%, 5.107117%, 5.107117%)" offset="0.117187"/><stop stop-opacity="1" stop-color="rgb(5.459595%, 5.459595%, 5.459595%)" offset="0.125"/><stop stop-opacity="1" stop-color="rgb(5.812073%, 5.812073%, 5.812073%)" offset="0.132812"/><stop stop-opacity="1" stop-color="rgb(6.164551%, 6.164551%, 6.164551%)" offset="0.140625"/><stop stop-opacity="1" stop-color="rgb(6.517029%, 6.517029%, 6.517029%)" offset="0.148437"/><stop stop-opacity="1" stop-color="rgb(6.869507%, 6.869507%, 6.869507%)" offset="0.15625"/><stop stop-opacity="1" stop-color="rgb(7.221985%, 7.221985%, 7.221985%)" offset="0.164062"/><stop stop-opacity="1" stop-color="rgb(7.574463%, 7.574463%, 7.574463%)" offset="0.171875"/><stop stop-opacity="1" stop-color="rgb(7.926941%, 7.926941%, 7.926941%)" offset="0.179687"/><stop stop-opacity="1" stop-color="rgb(8.277893%, 8.277893%, 8.277893%)" offset="0.1875"/><stop stop-opacity="1" stop-color="rgb(8.630371%, 8.630371%, 8.630371%)" offset="0.195312"/><stop stop-opacity="1" stop-color="rgb(8.982849%, 8.982849%, 8.982849%)" offset="0.203125"/><stop stop-opacity="1" stop-color="rgb(9.335327%, 9.335327%, 9.335327%)" offset="0.210937"/><stop stop-opacity="1" stop-color="rgb(9.687805%, 9.687805%, 9.687805%)" offset="0.21875"/><stop stop-opacity="1" stop-color="rgb(10.040283%, 10.040283%, 10.040283%)" offset="0.226562"/><stop stop-opacity="1" stop-color="rgb(10.392761%, 10.392761%, 10.392761%)" offset="0.234375"/><stop stop-opacity="1" stop-color="rgb(10.745239%, 10.745239%, 10.745239%)" offset="0.242187"/><stop stop-opacity="1" stop-color="rgb(11.097717%, 11.097717%, 11.097717%)" offset="0.25"/><stop stop-opacity="1" stop-color="rgb(11.450195%, 11.450195%, 11.450195%)" offset="0.257812"/><stop stop-opacity="1" stop-color="rgb(11.802673%, 11.802673%, 11.802673%)" offset="0.265625"/><stop stop-opacity="1" stop-color="rgb(12.155151%, 12.155151%, 12.155151%)" offset="0.273438"/><stop stop-opacity="1" stop-color="rgb(12.506104%, 12.506104%, 12.506104%)" offset="0.28125"/><stop stop-opacity="1" stop-color="rgb(12.858582%, 12.858582%, 12.858582%)" offset="0.289062"/><stop stop-opacity="1" stop-color="rgb(13.21106%, 13.21106%, 13.21106%)" offset="0.296875"/><stop stop-opacity="1" stop-color="rgb(13.563538%, 13.563538%, 13.563538%)" offset="0.304688"/><stop stop-opacity="1" stop-color="rgb(13.916016%, 13.916016%, 13.916016%)" offset="0.3125"/><stop stop-opacity="1" stop-color="rgb(14.268494%, 14.268494%, 14.268494%)" offset="0.320312"/><stop stop-opacity="1" stop-color="rgb(14.620972%, 14.620972%, 14.620972%)" offset="0.328125"/><stop stop-opacity="1" stop-color="rgb(14.97345%, 14.97345%, 14.97345%)" offset="0.335938"/><stop stop-opacity="1" stop-color="rgb(15.325928%, 15.325928%, 15.325928%)" offset="0.34375"/><stop stop-opacity="1" stop-color="rgb(15.678406%, 15.678406%, 15.678406%)" offset="0.351562"/><stop stop-opacity="1" stop-color="rgb(16.030884%, 16.030884%, 16.030884%)" offset="0.359375"/><stop stop-opacity="1" stop-color="rgb(16.381836%, 16.381836%, 16.381836%)" offset="0.367188"/><stop stop-opacity="1" stop-color="rgb(16.734314%, 16.734314%, 16.734314%)" offset="0.375"/><stop stop-opacity="1" stop-color="rgb(17.086792%, 17.086792%, 17.086792%)" offset="0.382812"/><stop stop-opacity="1" stop-color="rgb(17.43927%, 17.43927%, 17.43927%)" offset="0.390625"/><stop stop-opacity="1" stop-color="rgb(17.791748%, 17.791748%, 17.791748%)" offset="0.398437"/><stop stop-opacity="1" stop-color="rgb(18.144226%, 18.144226%, 18.144226%)" offset="0.40625"/><stop stop-opacity="1" stop-color="rgb(18.496704%, 18.496704%, 18.496704%)" offset="0.414062"/><stop stop-opacity="1" stop-color="rgb(18.849182%, 18.849182%, 18.849182%)" offset="0.421875"/><stop stop-opacity="1" stop-color="rgb(19.20166%, 19.20166%, 19.20166%)" offset="0.429687"/><stop stop-opacity="1" stop-color="rgb(19.554138%, 19.554138%, 19.554138%)" offset="0.4375"/><stop stop-opacity="1" stop-color="rgb(19.906616%, 19.906616%, 19.906616%)" offset="0.445312"/><stop stop-opacity="1" stop-color="rgb(20.257568%, 20.257568%, 20.257568%)" offset="0.453125"/><stop stop-opacity="1" stop-color="rgb(20.610046%, 20.610046%, 20.610046%)" offset="0.460937"/><stop stop-opacity="1" stop-color="rgb(20.962524%, 20.962524%, 20.962524%)" offset="0.46875"/><stop stop-opacity="1" stop-color="rgb(21.315002%, 21.315002%, 21.315002%)" offset="0.476562"/><stop stop-opacity="1" stop-color="rgb(21.66748%, 21.66748%, 21.66748%)" offset="0.484375"/><stop stop-opacity="1" stop-color="rgb(22.019958%, 22.019958%, 22.019958%)" offset="0.492187"/><stop stop-opacity="1" stop-color="rgb(22.372437%, 22.372437%, 22.372437%)" offset="0.5"/><stop stop-opacity="1" stop-color="rgb(22.724915%, 22.724915%, 22.724915%)" offset="0.507812"/><stop stop-opacity="1" stop-color="rgb(23.077393%, 23.077393%, 23.077393%)" offset="0.515625"/><stop stop-opacity="1" stop-color="rgb(23.429871%, 23.429871%, 23.429871%)" offset="0.523438"/><stop stop-opacity="1" stop-color="rgb(23.782349%, 23.782349%, 23.782349%)" offset="0.53125"/><stop stop-opacity="1" stop-color="rgb(24.134827%, 24.134827%, 24.134827%)" offset="0.539063"/><stop stop-opacity="1" stop-color="rgb(24.485779%, 24.485779%, 24.485779%)" offset="0.546875"/><stop stop-opacity="1" stop-color="rgb(24.838257%, 24.838257%, 24.838257%)" offset="0.554688"/><stop stop-opacity="1" stop-color="rgb(25.190735%, 25.190735%, 25.190735%)" offset="0.5625"/><stop stop-opacity="1" stop-color="rgb(25.543213%, 25.543213%, 25.543213%)" offset="0.570313"/><stop stop-opacity="1" stop-color="rgb(25.895691%, 25.895691%, 25.895691%)" offset="0.578125"/><stop stop-opacity="1" stop-color="rgb(26.248169%, 26.248169%, 26.248169%)" offset="0.585938"/><stop stop-opacity="1" stop-color="rgb(26.600647%, 26.600647%, 26.600647%)" offset="0.59375"/><stop stop-opacity="1" stop-color="rgb(26.953125%, 26.953125%, 26.953125%)" offset="0.601563"/><stop stop-opacity="1" stop-color="rgb(27.305603%, 27.305603%, 27.305603%)" offset="0.609375"/><stop stop-opacity="1" stop-color="rgb(27.658081%, 27.658081%, 27.658081%)" offset="0.617188"/><stop stop-opacity="1" stop-color="rgb(28.010559%, 28.010559%, 28.010559%)" offset="0.625"/><stop stop-opacity="1" stop-color="rgb(28.361511%, 28.361511%, 28.361511%)" offset="0.632813"/><stop stop-opacity="1" stop-color="rgb(28.713989%, 28.713989%, 28.713989%)" offset="0.640625"/><stop stop-opacity="1" stop-color="rgb(29.066467%, 29.066467%, 29.066467%)" offset="0.648438"/><stop stop-opacity="1" stop-color="rgb(29.418945%, 29.418945%, 29.418945%)" offset="0.65625"/><stop stop-opacity="1" stop-color="rgb(29.771423%, 29.771423%, 29.771423%)" offset="0.664063"/><stop stop-opacity="1" stop-color="rgb(30.123901%, 30.123901%, 30.123901%)" offset="0.671875"/><stop stop-opacity="1" stop-color="rgb(30.476379%, 30.476379%, 30.476379%)" offset="0.679688"/><stop stop-opacity="1" stop-color="rgb(30.828857%, 30.828857%, 30.828857%)" offset="0.6875"/><stop stop-opacity="1" stop-color="rgb(31.181335%, 31.181335%, 31.181335%)" offset="0.695313"/><stop stop-opacity="1" stop-color="rgb(31.533813%, 31.533813%, 31.533813%)" offset="0.703125"/><stop stop-opacity="1" stop-color="rgb(31.886292%, 31.886292%, 31.886292%)" offset="0.710938"/><stop stop-opacity="1" stop-color="rgb(32.237244%, 32.237244%, 32.237244%)" offset="0.71875"/><stop stop-opacity="1" stop-color="rgb(32.589722%, 32.589722%, 32.589722%)" offset="0.726563"/><stop stop-opacity="1" stop-color="rgb(32.9422%, 32.9422%, 32.9422%)" offset="0.734375"/><stop stop-opacity="1" stop-color="rgb(33.294678%, 33.294678%, 33.294678%)" offset="0.742188"/><stop stop-opacity="1" stop-color="rgb(33.647156%, 33.647156%, 33.647156%)" offset="0.75"/><stop stop-opacity="1" stop-color="rgb(33.999634%, 33.999634%, 33.999634%)" offset="0.757813"/><stop stop-opacity="1" stop-color="rgb(34.352112%, 34.352112%, 34.352112%)" offset="0.765625"/><stop stop-opacity="1" stop-color="rgb(34.70459%, 34.70459%, 34.70459%)" offset="0.773438"/><stop stop-opacity="1" stop-color="rgb(35.057068%, 35.057068%, 35.057068%)" offset="0.78125"/><stop stop-opacity="1" stop-color="rgb(35.409546%, 35.409546%, 35.409546%)" offset="0.789063"/><stop stop-opacity="1" stop-color="rgb(35.762024%, 35.762024%, 35.762024%)" offset="0.796875"/><stop stop-opacity="1" stop-color="rgb(36.114502%, 36.114502%, 36.114502%)" offset="0.804688"/><stop stop-opacity="1" stop-color="rgb(36.465454%, 36.465454%, 36.465454%)" offset="0.8125"/><stop stop-opacity="1" stop-color="rgb(36.817932%, 36.817932%, 36.817932%)" offset="0.820313"/><stop stop-opacity="1" stop-color="rgb(37.17041%, 37.17041%, 37.17041%)" offset="0.828125"/><stop stop-opacity="1" stop-color="rgb(37.522888%, 37.522888%, 37.522888%)" offset="0.835938"/><stop stop-opacity="1" stop-color="rgb(37.875366%, 37.875366%, 37.875366%)" offset="0.84375"/><stop stop-opacity="1" stop-color="rgb(38.227844%, 38.227844%, 38.227844%)" offset="0.851563"/><stop stop-opacity="1" stop-color="rgb(38.580322%, 38.580322%, 38.580322%)" offset="0.859375"/><stop stop-opacity="1" stop-color="rgb(38.9328%, 38.9328%, 38.9328%)" offset="0.867188"/><stop stop-opacity="1" stop-color="rgb(39.285278%, 39.285278%, 39.285278%)" offset="0.875"/><stop stop-opacity="1" stop-color="rgb(39.637756%, 39.637756%, 39.637756%)" offset="0.882813"/><stop stop-opacity="1" stop-color="rgb(39.990234%, 39.990234%, 39.990234%)" offset="0.890625"/><stop stop-opacity="1" stop-color="rgb(40.341187%, 40.341187%, 40.341187%)" offset="0.898438"/><stop stop-opacity="1" stop-color="rgb(40.693665%, 40.693665%, 40.693665%)" offset="0.90625"/><stop stop-opacity="1" stop-color="rgb(41.046143%, 41.046143%, 41.046143%)" offset="0.914063"/><stop stop-opacity="1" stop-color="rgb(41.398621%, 41.398621%, 41.398621%)" offset="0.921875"/><stop stop-opacity="1" stop-color="rgb(41.751099%, 41.751099%, 41.751099%)" offset="0.929688"/><stop stop-opacity="1" stop-color="rgb(42.103577%, 42.103577%, 42.103577%)" offset="0.9375"/><stop stop-opacity="1" stop-color="rgb(42.456055%, 42.456055%, 42.456055%)" offset="0.945313"/><stop stop-opacity="1" stop-color="rgb(42.808533%, 42.808533%, 42.808533%)" offset="0.953125"/><stop stop-opacity="1" stop-color="rgb(43.161011%, 43.161011%, 43.161011%)" offset="0.960938"/><stop stop-opacity="1" stop-color="rgb(43.513489%, 43.513489%, 43.513489%)" offset="0.96875"/><stop stop-opacity="1" stop-color="rgb(43.865967%, 43.865967%, 43.865967%)" offset="0.976563"/><stop stop-opacity="1" stop-color="rgb(44.216919%, 44.216919%, 44.216919%)" offset="0.984375"/><stop stop-opacity="1" stop-color="rgb(44.569397%, 44.569397%, 44.569397%)" offset="0.992188"/><stop stop-opacity="1" stop-color="rgb(44.921875%, 44.921875%, 44.921875%)" offset="1"/></linearGradient><clipPath id="1e6f720f97"><rect x="0" width="369" y="0" height="369"/></clipPath><clipPath id="605fc93275"><path d="M 29.5625 108 L 345.3125 108 L 345.3125 267 L 29.5625 267 Z M 29.5625 108 " clip-rule="nonzero"/></clipPath></defs><g clip-path="url(#fbd3d03a57)"><g clip-path="url(#a4629c95a1)"><g transform="matrix(1, 0, 0, 1, 3, 3)"><g clip-path="url(#1e6f720f97)"><g clip-path="url(#feb4915d2c)"><g clip-path="url(#bfeca13f4d)"><path fill="url(#6893bddb2a)" d="M 0.558594 0.558594 L 0.558594 368.441406 L 368.441406 368.441406 L 368.441406 0.558594 Z M 0.558594 0.558594 " fill-rule="nonzero"/></g></g></g></g></g></g><g clip-path="url(#605fc93275)"><path fill="#a6a6a6" d="M 266.03125 266.9375 C 245.765625 266.9375 226.695312 259.414062 211.761719 245.640625 L 162.863281 245.640625 C 148.394531 259.414062 129.320312 266.9375 108.550781 266.9375 C 64.996094 266.9375 29.5625 231.289062 29.5625 187.476562 C 29.5625 143.683594 64.996094 108.050781 108.550781 108.050781 L 266.03125 108.050781 C 309.8125 108.050781 345.429688 143.683594 345.429688 187.476562 C 345.429688 231.289062 309.8125 266.9375 266.03125 266.9375 Z M 152.273438 221.085938 L 222.039062 221.085938 L 225.664062 224.890625 C 236.421875 236.167969 250.753906 242.378906 266.03125 242.378906 C 296.269531 242.378906 320.875 217.75 320.875 187.476562 C 320.875 157.222656 296.269531 132.609375 266.03125 132.609375 L 108.550781 132.609375 C 78.539062 132.609375 54.121094 157.222656 54.121094 187.476562 C 54.121094 217.75 78.539062 242.378906 108.550781 242.378906 C 124.253906 242.378906 138.484375 236.242188 148.621094 225.101562 Z M 152.273438 221.085938 " fill-opacity="1" fill-rule="nonzero"/></g><path fill="#a6a6a6" d="M 127.648438 175.214844 L 120.859375 175.214844 L 120.859375 168.425781 C 120.859375 161.644531 115.359375 156.148438 108.578125 156.148438 C 101.800781 156.148438 96.300781 161.648438 96.300781 168.425781 L 96.300781 175.214844 L 89.511719 175.214844 C 82.730469 175.214844 77.234375 180.714844 77.234375 187.496094 C 77.234375 194.273438 82.730469 199.773438 89.511719 199.773438 L 96.300781 199.773438 L 96.300781 206.5625 C 96.300781 213.34375 101.800781 218.839844 108.578125 218.839844 C 115.359375 218.839844 120.859375 213.339844 120.859375 206.5625 L 120.859375 199.773438 L 127.648438 199.773438 C 134.429688 199.773438 139.925781 194.273438 139.925781 187.496094 C 139.925781 180.714844 134.429688 175.214844 127.648438 175.214844 Z M 127.648438 175.214844 " fill-opacity="1" fill-rule="evenodd"/><path fill="#a6a6a6" d="M 277.601562 168.425781 C 277.601562 169.230469 277.523438 170.03125 277.367188 170.820312 C 277.207031 171.609375 276.976562 172.378906 276.667969 173.125 C 276.359375 173.867188 275.980469 174.574219 275.53125 175.246094 C 275.085938 175.917969 274.574219 176.535156 274.003906 177.105469 C 273.4375 177.675781 272.816406 178.1875 272.144531 178.632812 C 271.476562 179.082031 270.765625 179.460938 270.023438 179.769531 C 269.277344 180.078125 268.511719 180.308594 267.71875 180.46875 C 266.929688 180.625 266.128906 180.703125 265.324219 180.703125 C 264.519531 180.703125 263.71875 180.625 262.929688 180.46875 C 262.136719 180.308594 261.371094 180.078125 260.625 179.769531 C 259.878906 179.460938 259.171875 179.082031 258.503906 178.632812 C 257.832031 178.1875 257.210938 177.675781 256.640625 177.105469 C 256.074219 176.535156 255.5625 175.917969 255.117188 175.246094 C 254.667969 174.578125 254.289062 173.867188 253.980469 173.125 C 253.671875 172.378906 253.441406 171.609375 253.28125 170.820312 C 253.125 170.03125 253.046875 169.230469 253.046875 168.425781 C 253.046875 167.621094 253.125 166.820312 253.28125 166.03125 C 253.441406 165.238281 253.671875 164.472656 253.980469 163.726562 C 254.289062 162.980469 254.667969 162.273438 255.117188 161.605469 C 255.5625 160.933594 256.074219 160.3125 256.640625 159.742188 C 257.210938 159.171875 257.832031 158.664062 258.503906 158.214844 C 259.171875 157.769531 259.878906 157.390625 260.625 157.082031 C 261.371094 156.773438 262.136719 156.539062 262.929688 156.382812 C 263.71875 156.226562 264.519531 156.148438 265.324219 156.148438 C 266.128906 156.148438 266.929688 156.226562 267.71875 156.382812 C 268.511719 156.539062 269.277344 156.773438 270.023438 157.082031 C 270.765625 157.390625 271.476562 157.769531 272.144531 158.214844 C 272.816406 158.664062 273.4375 159.171875 274.003906 159.742188 C 274.574219 160.3125 275.085938 160.933594 275.53125 161.605469 C 275.980469 162.273438 276.359375 162.980469 276.667969 163.726562 C 276.976562 164.472656 277.207031 165.238281 277.367188 166.03125 C 277.523438 166.820312 277.601562 167.621094 277.601562 168.425781 Z M 277.601562 168.425781 " fill-opacity="1" fill-rule="nonzero"/><path fill="#a6a6a6" d="M 277.601562 206.5625 C 277.601562 207.371094 277.523438 208.167969 277.367188 208.957031 C 277.207031 209.75 276.976562 210.515625 276.667969 211.261719 C 276.359375 212.007812 275.980469 212.714844 275.53125 213.382812 C 275.085938 214.054688 274.574219 214.675781 274.003906 215.246094 C 273.4375 215.816406 272.816406 216.324219 272.144531 216.773438 C 271.476562 217.21875 270.765625 217.597656 270.023438 217.90625 C 269.277344 218.214844 268.511719 218.449219 267.71875 218.605469 C 266.929688 218.761719 266.128906 218.839844 265.324219 218.839844 C 264.519531 218.839844 263.71875 218.761719 262.929688 218.605469 C 262.136719 218.449219 261.371094 218.214844 260.625 217.90625 C 259.878906 217.597656 259.171875 217.21875 258.503906 216.773438 C 257.832031 216.324219 257.210938 215.816406 256.640625 215.246094 C 256.074219 214.675781 255.5625 214.054688 255.117188 213.382812 C 254.667969 212.714844 254.289062 212.007812 253.980469 211.261719 C 253.671875 210.515625 253.441406 209.75 253.28125 208.957031 C 253.125 208.167969 253.046875 207.371094 253.046875 206.5625 C 253.046875 205.757812 253.125 204.957031 253.28125 204.167969 C 253.441406 203.378906 253.671875 202.609375 253.980469 201.863281 C 254.289062 201.121094 254.667969 200.414062 255.117188 199.742188 C 255.5625 199.070312 256.074219 198.453125 256.640625 197.882812 C 257.210938 197.3125 257.832031 196.800781 258.503906 196.355469 C 259.171875 195.90625 259.878906 195.527344 260.625 195.21875 C 261.371094 194.910156 262.136719 194.679688 262.929688 194.519531 C 263.71875 194.363281 264.519531 194.285156 265.324219 194.285156 C 266.128906 194.285156 266.929688 194.363281 267.71875 194.519531 C 268.511719 194.679688 269.277344 194.910156 270.023438 195.21875 C 270.765625 195.527344 271.476562 195.90625 272.144531 196.355469 C 272.816406 196.800781 273.4375 197.3125 274.003906 197.882812 C 274.574219 198.453125 275.085938 199.070312 275.53125 199.742188 C 275.980469 200.414062 276.359375 201.121094 276.667969 201.863281 C 276.976562 202.609375 277.207031 203.378906 277.367188 204.167969 C 277.523438 204.957031 277.601562 205.757812 277.601562 206.5625 Z M 277.601562 206.5625 " fill-opacity="1" fill-rule="nonzero"/><path fill="#a6a6a6" d="M 296.757812 187.496094 C 296.757812 188.300781 296.679688 189.097656 296.523438 189.890625 C 296.367188 190.679688 296.132812 191.449219 295.824219 192.191406 C 295.515625 192.9375 295.136719 193.644531 294.691406 194.316406 C 294.242188 194.984375 293.734375 195.605469 293.164062 196.175781 C 292.59375 196.746094 291.972656 197.253906 291.300781 197.703125 C 290.632812 198.152344 289.925781 198.527344 289.179688 198.835938 C 288.433594 199.144531 287.667969 199.378906 286.875 199.535156 C 286.085938 199.691406 285.289062 199.773438 284.480469 199.773438 C 283.675781 199.773438 282.875 199.691406 282.085938 199.535156 C 281.296875 199.378906 280.527344 199.144531 279.78125 198.835938 C 279.039062 198.527344 278.332031 198.152344 277.660156 197.703125 C 276.988281 197.253906 276.371094 196.746094 275.800781 196.175781 C 275.230469 195.605469 274.722656 194.984375 274.273438 194.316406 C 273.824219 193.644531 273.445312 192.9375 273.136719 192.191406 C 272.828125 191.449219 272.597656 190.679688 272.441406 189.890625 C 272.28125 189.097656 272.203125 188.300781 272.203125 187.496094 C 272.203125 186.6875 272.28125 185.890625 272.441406 185.097656 C 272.597656 184.308594 272.828125 183.539062 273.136719 182.796875 C 273.445312 182.050781 273.824219 181.34375 274.273438 180.671875 C 274.722656 180.003906 275.230469 179.382812 275.800781 178.8125 C 276.371094 178.242188 276.988281 177.734375 277.660156 177.285156 C 278.332031 176.835938 279.039062 176.460938 279.78125 176.152344 C 280.527344 175.84375 281.296875 175.609375 282.085938 175.453125 C 282.875 175.296875 283.675781 175.214844 284.480469 175.214844 C 285.289062 175.214844 286.085938 175.296875 286.875 175.453125 C 287.667969 175.609375 288.433594 175.84375 289.179688 176.152344 C 289.925781 176.460938 290.632812 176.835938 291.300781 177.285156 C 291.972656 177.734375 292.59375 178.242188 293.164062 178.8125 C 293.734375 179.382812 294.242188 180.003906 294.691406 180.671875 C 295.136719 181.34375 295.515625 182.050781 295.824219 182.796875 C 296.132812 183.539062 296.367188 184.308594 296.523438 185.097656 C 296.679688 185.890625 296.757812 186.6875 296.757812 187.496094 Z M 296.757812 187.496094 " fill-opacity="1" fill-rule="nonzero"/><path fill="#a6a6a6" d="M 258.269531 187.496094 C 258.269531 188.300781 258.191406 189.097656 258.035156 189.890625 C 257.875 190.679688 257.644531 191.449219 257.335938 192.191406 C 257.027344 192.9375 256.648438 193.644531 256.199219 194.316406 C 255.753906 194.984375 255.242188 195.605469 254.671875 196.175781 C 254.101562 196.746094 253.484375 197.253906 252.8125 197.703125 C 252.140625 198.152344 251.433594 198.527344 250.691406 198.835938 C 249.945312 199.144531 249.175781 199.378906 248.386719 199.535156 C 247.597656 199.691406 246.796875 199.773438 245.992188 199.773438 C 245.183594 199.773438 244.386719 199.691406 243.597656 199.535156 C 242.804688 199.378906 242.039062 199.144531 241.292969 198.835938 C 240.546875 198.527344 239.839844 198.152344 239.171875 197.703125 C 238.5 197.253906 237.878906 196.746094 237.308594 196.175781 C 236.738281 195.605469 236.230469 194.984375 235.78125 194.316406 C 235.335938 193.644531 234.957031 192.9375 234.648438 192.191406 C 234.339844 191.449219 234.105469 190.679688 233.949219 189.890625 C 233.792969 189.097656 233.714844 188.300781 233.714844 187.496094 C 233.714844 186.6875 233.792969 185.890625 233.949219 185.097656 C 234.105469 184.308594 234.339844 183.539062 234.648438 182.796875 C 234.957031 182.050781 235.335938 181.34375 235.78125 180.671875 C 236.230469 180.003906 236.738281 179.382812 237.308594 178.8125 C 237.878906 178.242188 238.5 177.734375 239.171875 177.285156 C 239.839844 176.835938 240.546875 176.460938 241.292969 176.152344 C 242.039062 175.84375 242.804688 175.609375 243.597656 175.453125 C 244.386719 175.296875 245.183594 175.214844 245.992188 175.214844 C 246.796875 175.214844 247.597656 175.296875 248.386719 175.453125 C 249.175781 175.609375 249.945312 175.84375 250.691406 176.152344 C 251.433594 176.460938 252.140625 176.835938 252.8125 177.285156 C 253.484375 177.734375 254.101562 178.242188 254.671875 178.8125 C 255.242188 179.382812 255.753906 180.003906 256.199219 180.671875 C 256.648438 181.34375 257.027344 182.050781 257.335938 182.796875 C 257.644531 183.539062 257.875 184.308594 258.035156 185.097656 C 258.191406 185.890625 258.269531 186.6875 258.269531 187.496094 Z M 258.269531 187.496094 " fill-opacity="1" fill-rule="nonzero"/></svg>