<svg xmlns="http://www.w3.org/2000/svg" xmlns:xlink="http://www.w3.org/1999/xlink" width="500" zoomAndPan="magnify" viewBox="0 0 375 374.999991" height="500" preserveAspectRatio="xMidYMid meet" version="1.0"><path fill="#ffffff" d="M 280.734375 281.8125 C 256.675781 281.8125 234.039062 272.882812 216.304688 256.53125 L 158.25 256.53125 C 141.078125 272.882812 118.429688 281.8125 93.773438 281.8125 C 42.066406 281.8125 0 239.492188 0 187.476562 C 0 135.484375 42.066406 93.1875 93.773438 93.1875 L 280.734375 93.1875 C 332.710938 93.1875 375 135.484375 375 187.476562 C 375 239.492188 332.710938 281.8125 280.734375 281.8125 Z M 145.683594 227.378906 L 228.511719 227.378906 L 232.8125 231.894531 C 245.582031 245.289062 262.597656 252.660156 280.734375 252.660156 C 316.636719 252.660156 345.847656 223.421875 345.847656 187.476562 C 345.847656 151.5625 316.636719 122.339844 280.734375 122.339844 L 93.773438 122.339844 C 58.140625 122.339844 29.15625 151.5625 29.15625 187.476562 C 29.15625 223.421875 58.140625 252.660156 93.773438 252.660156 C 112.417969 252.660156 129.3125 245.375 141.34375 232.148438 Z M 145.683594 227.378906 " fill-opacity="1" fill-rule="nonzero"/><path fill="#ffffff" d="M 116.445312 172.921875 L 108.382812 172.921875 L 108.382812 164.863281 C 108.382812 156.8125 101.859375 150.285156 93.808594 150.285156 C 85.757812 150.285156 79.230469 156.8125 79.230469 164.863281 L 79.230469 172.921875 L 71.171875 172.921875 C 63.121094 172.921875 56.59375 179.449219 56.59375 187.5 C 56.59375 195.550781 63.121094 202.078125 71.171875 202.078125 L 79.230469 202.078125 L 79.230469 210.136719 C 79.230469 218.1875 85.757812 224.714844 93.808594 224.714844 C 101.859375 224.714844 108.382812 218.1875 108.382812 210.136719 L 108.382812 202.078125 L 116.445312 202.078125 C 124.496094 202.078125 131.019531 195.550781 131.019531 187.5 C 131.019531 179.449219 124.496094 172.921875 116.445312 172.921875 Z M 116.445312 172.921875 " fill-opacity="1" fill-rule="evenodd"/><path fill="#ffffff" d="M 294.472656 164.859375 C 294.472656 165.816406 294.378906 166.765625 294.191406 167.703125 C 294.003906 168.644531 293.730469 169.554688 293.363281 170.4375 C 292.996094 171.324219 292.546875 172.164062 292.015625 172.960938 C 291.484375 173.753906 290.878906 174.492188 290.203125 175.167969 C 289.527344 175.84375 288.789062 176.449219 287.996094 176.980469 C 287.199219 177.511719 286.359375 177.960938 285.472656 178.328125 C 284.589844 178.695312 283.679688 178.96875 282.738281 179.15625 C 281.800781 179.34375 280.851562 179.4375 279.894531 179.4375 C 278.9375 179.4375 277.992188 179.34375 277.050781 179.15625 C 276.113281 178.96875 275.203125 178.695312 274.316406 178.328125 C 273.433594 177.960938 272.59375 177.511719 271.796875 176.980469 C 271.003906 176.449219 270.265625 175.84375 269.589844 175.167969 C 268.914062 174.492188 268.308594 173.753906 267.777344 172.960938 C 267.246094 172.164062 266.796875 171.324219 266.429688 170.4375 C 266.0625 169.554688 265.785156 168.644531 265.601562 167.703125 C 265.414062 166.765625 265.320312 165.816406 265.320312 164.859375 C 265.320312 163.902344 265.414062 162.957031 265.601562 162.015625 C 265.785156 161.078125 266.0625 160.167969 266.429688 159.28125 C 266.796875 158.398438 267.246094 157.558594 267.777344 156.761719 C 268.308594 155.96875 268.914062 155.230469 269.589844 154.554688 C 270.265625 153.878906 271.003906 153.273438 271.796875 152.742188 C 272.59375 152.210938 273.433594 151.761719 274.316406 151.394531 C 275.203125 151.027344 276.113281 150.75 277.050781 150.566406 C 277.992188 150.378906 278.9375 150.285156 279.894531 150.285156 C 280.851562 150.285156 281.800781 150.378906 282.738281 150.566406 C 283.679688 150.75 284.589844 151.027344 285.472656 151.394531 C 286.359375 151.761719 287.199219 152.210938 287.996094 152.742188 C 288.789062 153.273438 289.527344 153.878906 290.203125 154.554688 C 290.878906 155.230469 291.484375 155.96875 292.015625 156.761719 C 292.546875 157.558594 292.996094 158.398438 293.363281 159.28125 C 293.730469 160.167969 294.003906 161.078125 294.191406 162.015625 C 294.378906 162.957031 294.472656 163.902344 294.472656 164.859375 Z M 294.472656 164.859375 " fill-opacity="1" fill-rule="nonzero"/><path fill="#ffffff" d="M 294.472656 210.140625 C 294.472656 211.097656 294.378906 212.042969 294.191406 212.980469 C 294.003906 213.921875 293.730469 214.832031 293.363281 215.714844 C 292.996094 216.601562 292.546875 217.441406 292.015625 218.238281 C 291.484375 219.03125 290.878906 219.769531 290.203125 220.445312 C 289.527344 221.121094 288.789062 221.726562 287.996094 222.257812 C 287.199219 222.789062 286.359375 223.238281 285.472656 223.605469 C 284.589844 223.972656 283.679688 224.25 282.738281 224.433594 C 281.800781 224.621094 280.851562 224.714844 279.894531 224.714844 C 278.9375 224.714844 277.992188 224.621094 277.050781 224.433594 C 276.113281 224.25 275.203125 223.972656 274.316406 223.605469 C 273.433594 223.238281 272.59375 222.789062 271.796875 222.257812 C 271.003906 221.726562 270.265625 221.121094 269.589844 220.445312 C 268.914062 219.769531 268.308594 219.03125 267.777344 218.238281 C 267.246094 217.441406 266.796875 216.601562 266.429688 215.714844 C 266.0625 214.832031 265.785156 213.921875 265.601562 212.980469 C 265.414062 212.042969 265.320312 211.097656 265.320312 210.140625 C 265.320312 209.179688 265.414062 208.234375 265.601562 207.296875 C 265.785156 206.355469 266.0625 205.445312 266.429688 204.5625 C 266.796875 203.675781 267.246094 202.835938 267.777344 202.039062 C 268.308594 201.246094 268.914062 200.507812 269.589844 199.832031 C 270.265625 199.15625 271.003906 198.550781 271.796875 198.019531 C 272.59375 197.488281 273.433594 197.039062 274.316406 196.671875 C 275.203125 196.304688 276.113281 196.027344 277.050781 195.84375 C 277.992188 195.65625 278.9375 195.5625 279.894531 195.5625 C 280.851562 195.5625 281.800781 195.65625 282.738281 195.84375 C 283.679688 196.027344 284.589844 196.304688 285.472656 196.671875 C 286.359375 197.039062 287.199219 197.488281 287.996094 198.019531 C 288.789062 198.550781 289.527344 199.15625 290.203125 199.832031 C 290.878906 200.507812 291.484375 201.246094 292.015625 202.039062 C 292.546875 202.835938 292.996094 203.675781 293.363281 204.5625 C 293.730469 205.445312 294.003906 206.355469 294.191406 207.296875 C 294.378906 208.234375 294.472656 209.179688 294.472656 210.140625 Z M 294.472656 210.140625 " fill-opacity="1" fill-rule="nonzero"/><path fill="#ffffff" d="M 317.214844 187.5 C 317.214844 188.457031 317.121094 189.40625 316.9375 190.34375 C 316.75 191.28125 316.472656 192.195312 316.105469 193.078125 C 315.742188 193.960938 315.292969 194.800781 314.757812 195.597656 C 314.226562 196.394531 313.625 197.128906 312.945312 197.808594 C 312.269531 198.484375 311.535156 199.089844 310.738281 199.621094 C 309.941406 200.152344 309.101562 200.601562 308.21875 200.964844 C 307.332031 201.332031 306.421875 201.609375 305.484375 201.796875 C 304.546875 201.984375 303.597656 202.078125 302.640625 202.078125 C 301.683594 202.078125 300.734375 201.984375 299.796875 201.796875 C 298.859375 201.609375 297.945312 201.332031 297.0625 200.964844 C 296.175781 200.601562 295.335938 200.152344 294.542969 199.621094 C 293.746094 199.089844 293.011719 198.484375 292.332031 197.808594 C 291.65625 197.128906 291.050781 196.394531 290.519531 195.597656 C 289.988281 194.800781 289.539062 193.960938 289.171875 193.078125 C 288.808594 192.195312 288.53125 191.28125 288.34375 190.34375 C 288.15625 189.40625 288.0625 188.457031 288.0625 187.5 C 288.0625 186.542969 288.15625 185.59375 288.34375 184.65625 C 288.53125 183.71875 288.808594 182.804688 289.171875 181.921875 C 289.539062 181.039062 289.988281 180.199219 290.519531 179.402344 C 291.050781 178.605469 291.65625 177.871094 292.332031 177.191406 C 293.011719 176.515625 293.746094 175.910156 294.542969 175.378906 C 295.335938 174.847656 296.175781 174.398438 297.0625 174.035156 C 297.945312 173.667969 298.859375 173.390625 299.796875 173.203125 C 300.734375 173.015625 301.683594 172.921875 302.640625 172.921875 C 303.597656 172.921875 304.546875 173.015625 305.484375 173.203125 C 306.421875 173.390625 307.332031 173.667969 308.21875 174.035156 C 309.101562 174.398438 309.941406 174.847656 310.738281 175.378906 C 311.535156 175.910156 312.269531 176.515625 312.945312 177.191406 C 313.625 177.871094 314.226562 178.605469 314.757812 179.402344 C 315.292969 180.199219 315.742188 181.039062 316.105469 181.921875 C 316.472656 182.804688 316.75 183.71875 316.9375 184.65625 C 317.121094 185.59375 317.214844 186.542969 317.214844 187.5 Z M 317.214844 187.5 " fill-opacity="1" fill-rule="nonzero"/><path fill="#ffffff" d="M 271.519531 187.5 C 271.519531 188.457031 271.425781 189.40625 271.242188 190.34375 C 271.054688 191.28125 270.777344 192.195312 270.410156 193.078125 C 270.042969 193.960938 269.597656 194.800781 269.0625 195.597656 C 268.53125 196.394531 267.929688 197.128906 267.25 197.808594 C 266.574219 198.484375 265.839844 199.089844 265.042969 199.621094 C 264.246094 200.152344 263.40625 200.601562 262.523438 200.964844 C 261.636719 201.332031 260.726562 201.609375 259.789062 201.796875 C 258.847656 201.984375 257.902344 202.078125 256.945312 202.078125 C 255.988281 202.078125 255.039062 201.984375 254.101562 201.796875 C 253.160156 201.609375 252.25 201.332031 251.367188 200.964844 C 250.480469 200.601562 249.640625 200.152344 248.847656 199.621094 C 248.050781 199.089844 247.3125 198.484375 246.636719 197.808594 C 245.960938 197.128906 245.355469 196.394531 244.824219 195.597656 C 244.292969 194.800781 243.84375 193.960938 243.476562 193.078125 C 243.113281 192.195312 242.835938 191.28125 242.648438 190.34375 C 242.460938 189.40625 242.367188 188.457031 242.367188 187.5 C 242.367188 186.542969 242.460938 185.59375 242.648438 184.65625 C 242.835938 183.71875 243.113281 182.804688 243.476562 181.921875 C 243.84375 181.039062 244.292969 180.199219 244.824219 179.402344 C 245.355469 178.605469 245.960938 177.871094 246.636719 177.191406 C 247.3125 176.515625 248.050781 175.910156 248.847656 175.378906 C 249.640625 174.847656 250.480469 174.398438 251.367188 174.035156 C 252.25 173.667969 253.160156 173.390625 254.101562 173.203125 C 255.039062 173.015625 255.988281 172.921875 256.945312 172.921875 C 257.902344 172.921875 258.847656 173.015625 259.789062 173.203125 C 260.726562 173.390625 261.636719 173.667969 262.523438 174.035156 C 263.40625 174.398438 264.246094 174.847656 265.042969 175.378906 C 265.839844 175.910156 266.574219 176.515625 267.25 177.191406 C 267.929688 177.871094 268.53125 178.605469 269.0625 179.402344 C 269.597656 180.199219 270.042969 181.039062 270.410156 181.921875 C 270.777344 182.804688 271.054688 183.71875 271.242188 184.65625 C 271.425781 185.59375 271.519531 186.542969 271.519531 187.5 Z M 271.519531 187.5 " fill-opacity="1" fill-rule="nonzero"/></svg>