<svg xmlns="http://www.w3.org/2000/svg" xmlns:xlink="http://www.w3.org/1999/xlink" width="500" zoomAndPan="magnify" viewBox="0 0 375 374.999991" height="500" preserveAspectRatio="xMidYMid meet" version="1.0"><defs><clipPath id="748f1a5406"><path d="M 41.359375 113.699219 L 333.859375 113.699219 L 333.859375 261.449219 L 41.359375 261.449219 Z M 41.359375 113.699219 " clip-rule="nonzero"/></clipPath></defs><path fill="#ffffff" d="M 179.066406 0.308594 C 178.242188 0.375 175.5625 0.574219 173.113281 0.773438 C 143.597656 3.152344 113.421875 13.742188 88.078125 30.648438 C 63.460938 47.0625 42.351562 70.15625 28.6875 95.566406 C 27.828125 97.1875 26.667969 99.339844 26.140625 100.296875 C 25.644531 101.292969 24.285156 104.039062 23.195312 106.417969 C 1.421875 153.4375 0 207.238281 19.257812 255.214844 C 37.6875 301.171875 74.347656 338.195312 119.84375 356.890625 C 159.777344 373.269531 203.882812 374.921875 244.746094 361.554688 C 264.167969 355.203125 281.308594 346.203125 297.785156 333.828125 C 310.820312 324 324.222656 310.5 334.3125 297.070312 C 350.757812 275.199219 362.4375 248.859375 367.796875 221.792969 C 373.125 194.863281 372.5625 167.53125 366.109375 141.0625 C 349.996094 74.6875 298.613281 22.277344 233.464844 5.769531 C 223.539062 3.253906 215.496094 1.863281 204.546875 0.773438 C 201.105469 0.40625 181.945312 0.078125 179.066406 0.308594 Z M 200.773438 22.609375 C 216.621094 23.867188 231.246094 27.175781 246.234375 32.867188 C 272.871094 43.023438 296.757812 60.726562 315.058594 83.820312 C 318.035156 87.59375 324.289062 96.824219 327.628906 102.351562 C 330.410156 107.015625 337.554688 121.40625 337.554688 122.402344 C 337.554688 122.5 337.855469 123.195312 338.183594 123.957031 C 340.667969 129.480469 344.835938 143.34375 346.589844 151.980469 C 349.070312 164.15625 349.898438 172.394531 349.929688 185.398438 C 349.929688 202.207031 348.144531 215.046875 343.546875 231.289062 C 331.996094 272.054688 304.46875 307.125 267.578125 328.070312 C 247.988281 339.222656 226.746094 345.839844 202.890625 348.253906 C 197.496094 348.816406 180.523438 348.785156 174.933594 348.222656 C 157.460938 346.5 141.347656 342.464844 126.128906 335.980469 C 120.039062 333.398438 110.777344 328.566406 104.457031 324.695312 C 88.441406 314.871094 72.429688 300.210938 60.878906 284.824219 C 41.921875 259.582031 30.804688 230.296875 28.15625 198.5 C 27.59375 191.453125 27.957031 172.394531 28.820312 165.878906 C 30.242188 154.925781 32.722656 143.742188 35.867188 134.113281 C 37.355469 129.515625 40.929688 120.152344 41.722656 118.628906 C 41.921875 118.332031 43.078125 115.882812 44.335938 113.234375 C 58.398438 83.6875 82.882812 57.914062 112.066406 41.898438 C 131.71875 31.113281 153.890625 24.496094 176.585938 22.644531 C 181.449219 22.246094 195.875 22.210938 200.773438 22.609375 Z M 200.773438 22.609375 " fill-opacity="1" fill-rule="nonzero"/><g clip-path="url(#748f1a5406)"><path fill="#ffffff" d="M 260.167969 261.007812 C 241.417969 261.007812 223.769531 254.046875 209.949219 241.300781 L 164.703125 241.300781 C 151.320312 254.046875 133.667969 261.007812 114.449219 261.007812 C 74.148438 261.007812 41.359375 228.023438 41.359375 187.480469 C 41.359375 146.957031 74.148438 113.988281 114.449219 113.988281 L 260.167969 113.988281 C 300.679688 113.988281 333.636719 146.957031 333.636719 187.480469 C 333.636719 228.023438 300.679688 261.007812 260.167969 261.007812 Z M 154.90625 218.582031 L 219.464844 218.582031 L 222.816406 222.101562 C 232.769531 232.539062 246.03125 238.285156 260.167969 238.285156 C 288.148438 238.285156 310.917969 215.496094 310.917969 187.480469 C 310.917969 159.488281 288.148438 136.710938 260.167969 136.710938 L 114.449219 136.710938 C 86.675781 136.710938 64.085938 159.488281 64.085938 187.480469 C 64.085938 215.496094 86.675781 238.285156 114.449219 238.285156 C 128.980469 238.285156 142.148438 232.605469 151.527344 222.296875 Z M 154.90625 218.582031 " fill-opacity="1" fill-rule="nonzero"/></g><path fill="#ffffff" d="M 132.117188 176.136719 L 125.835938 176.136719 L 125.835938 169.855469 C 125.835938 163.582031 120.75 158.496094 114.476562 158.496094 C 108.203125 158.496094 103.113281 163.582031 103.113281 169.855469 L 103.113281 176.136719 L 96.832031 176.136719 C 90.558594 176.136719 85.472656 181.226562 85.472656 187.5 C 85.472656 193.773438 90.558594 198.859375 96.832031 198.859375 L 103.113281 198.859375 L 103.113281 205.140625 C 103.113281 211.417969 108.203125 216.503906 114.476562 216.503906 C 120.75 216.503906 125.835938 211.414062 125.835938 205.140625 L 125.835938 198.859375 L 132.117188 198.859375 C 138.394531 198.859375 143.480469 193.773438 143.480469 187.5 C 143.480469 181.226562 138.394531 176.136719 132.117188 176.136719 Z M 132.117188 176.136719 " fill-opacity="1" fill-rule="evenodd"/><path fill="#ffffff" d="M 270.875 169.855469 C 270.875 170.601562 270.800781 171.339844 270.65625 172.070312 C 270.511719 172.800781 270.296875 173.511719 270.011719 174.203125 C 269.722656 174.890625 269.375 175.546875 268.960938 176.164062 C 268.546875 176.785156 268.074219 177.359375 267.546875 177.886719 C 267.019531 178.414062 266.445312 178.886719 265.824219 179.300781 C 265.207031 179.714844 264.550781 180.0625 263.863281 180.351562 C 263.171875 180.636719 262.460938 180.851562 261.730469 180.996094 C 261 181.140625 260.261719 181.214844 259.515625 181.214844 C 258.769531 181.214844 258.027344 181.140625 257.296875 180.996094 C 256.566406 180.851562 255.855469 180.636719 255.167969 180.351562 C 254.476562 180.0625 253.824219 179.714844 253.203125 179.300781 C 252.582031 178.886719 252.007812 178.414062 251.480469 177.886719 C 250.953125 177.359375 250.480469 176.785156 250.066406 176.164062 C 249.652344 175.546875 249.304688 174.890625 249.019531 174.203125 C 248.734375 173.511719 248.515625 172.800781 248.371094 172.070312 C 248.226562 171.339844 248.152344 170.601562 248.152344 169.855469 C 248.152344 169.109375 248.226562 168.367188 248.371094 167.636719 C 248.515625 166.90625 248.734375 166.195312 249.019531 165.507812 C 249.304688 164.816406 249.652344 164.164062 250.066406 163.542969 C 250.480469 162.921875 250.953125 162.347656 251.480469 161.820312 C 252.007812 161.292969 252.582031 160.820312 253.203125 160.40625 C 253.824219 159.992188 254.476562 159.644531 255.167969 159.359375 C 255.855469 159.074219 256.566406 158.855469 257.296875 158.710938 C 258.027344 158.566406 258.769531 158.492188 259.515625 158.492188 C 260.261719 158.492188 261 158.566406 261.730469 158.710938 C 262.460938 158.855469 263.171875 159.074219 263.863281 159.359375 C 264.550781 159.644531 265.207031 159.992188 265.824219 160.40625 C 266.445312 160.820312 267.019531 161.292969 267.546875 161.820312 C 268.074219 162.347656 268.546875 162.921875 268.960938 163.542969 C 269.375 164.164062 269.722656 164.816406 270.011719 165.507812 C 270.296875 166.195312 270.511719 166.90625 270.65625 167.636719 C 270.800781 168.367188 270.875 169.109375 270.875 169.855469 Z M 270.875 169.855469 " fill-opacity="1" fill-rule="nonzero"/><path fill="#ffffff" d="M 270.875 205.144531 C 270.875 205.890625 270.800781 206.628906 270.65625 207.359375 C 270.511719 208.089844 270.296875 208.800781 270.011719 209.492188 C 269.722656 210.179688 269.375 210.835938 268.960938 211.457031 C 268.546875 212.074219 268.074219 212.648438 267.546875 213.175781 C 267.019531 213.703125 266.445312 214.175781 265.824219 214.589844 C 265.207031 215.003906 264.550781 215.355469 263.863281 215.640625 C 263.171875 215.925781 262.460938 216.140625 261.730469 216.285156 C 261 216.429688 260.261719 216.503906 259.515625 216.503906 C 258.769531 216.503906 258.027344 216.429688 257.296875 216.285156 C 256.566406 216.140625 255.855469 215.925781 255.167969 215.640625 C 254.476562 215.355469 253.824219 215.003906 253.203125 214.589844 C 252.582031 214.175781 252.007812 213.703125 251.480469 213.175781 C 250.953125 212.648438 250.480469 212.074219 250.066406 211.457031 C 249.652344 210.835938 249.304688 210.179688 249.019531 209.492188 C 248.734375 208.800781 248.515625 208.089844 248.371094 207.359375 C 248.226562 206.628906 248.152344 205.890625 248.152344 205.144531 C 248.152344 204.398438 248.226562 203.660156 248.371094 202.925781 C 248.515625 202.195312 248.734375 201.484375 249.019531 200.796875 C 249.304688 200.105469 249.652344 199.453125 250.066406 198.832031 C 250.480469 198.210938 250.953125 197.636719 251.480469 197.109375 C 252.007812 196.582031 252.582031 196.113281 253.203125 195.695312 C 253.824219 195.28125 254.476562 194.933594 255.167969 194.648438 C 255.855469 194.363281 256.566406 194.144531 257.296875 194 C 258.027344 193.855469 258.769531 193.78125 259.515625 193.78125 C 260.261719 193.78125 261 193.855469 261.730469 194 C 262.460938 194.144531 263.171875 194.363281 263.863281 194.648438 C 264.550781 194.933594 265.207031 195.28125 265.824219 195.695312 C 266.445312 196.113281 267.019531 196.582031 267.546875 197.109375 C 268.074219 197.636719 268.546875 198.210938 268.960938 198.832031 C 269.375 199.453125 269.722656 200.105469 270.011719 200.796875 C 270.296875 201.484375 270.511719 202.195312 270.65625 202.925781 C 270.800781 203.660156 270.875 204.398438 270.875 205.144531 Z M 270.875 205.144531 " fill-opacity="1" fill-rule="nonzero"/><path fill="#ffffff" d="M 288.601562 187.5 C 288.601562 188.246094 288.527344 188.984375 288.382812 189.714844 C 288.238281 190.445312 288.023438 191.15625 287.738281 191.847656 C 287.449219 192.535156 287.101562 193.191406 286.6875 193.808594 C 286.273438 194.429688 285.800781 195.003906 285.273438 195.53125 C 284.746094 196.058594 284.171875 196.53125 283.550781 196.945312 C 282.933594 197.359375 282.277344 197.710938 281.589844 197.996094 C 280.898438 198.28125 280.1875 198.496094 279.457031 198.640625 C 278.726562 198.785156 277.988281 198.859375 277.242188 198.859375 C 276.496094 198.859375 275.753906 198.785156 275.023438 198.640625 C 274.292969 198.496094 273.582031 198.28125 272.894531 197.996094 C 272.203125 197.710938 271.550781 197.359375 270.929688 196.945312 C 270.308594 196.53125 269.734375 196.058594 269.207031 195.53125 C 268.679688 195.003906 268.207031 194.429688 267.792969 193.808594 C 267.378906 193.191406 267.03125 192.535156 266.746094 191.847656 C 266.460938 191.15625 266.242188 190.445312 266.097656 189.714844 C 265.953125 188.984375 265.878906 188.246094 265.878906 187.5 C 265.878906 186.753906 265.953125 186.015625 266.097656 185.28125 C 266.242188 184.550781 266.460938 183.839844 266.746094 183.152344 C 267.03125 182.460938 267.378906 181.808594 267.792969 181.1875 C 268.207031 180.566406 268.679688 179.992188 269.207031 179.464844 C 269.734375 178.9375 270.308594 178.46875 270.929688 178.050781 C 271.550781 177.636719 272.203125 177.289062 272.894531 177.003906 C 273.582031 176.71875 274.292969 176.5 275.023438 176.355469 C 275.753906 176.210938 276.496094 176.136719 277.242188 176.136719 C 277.988281 176.136719 278.726562 176.210938 279.457031 176.355469 C 280.1875 176.5 280.898438 176.71875 281.589844 177.003906 C 282.277344 177.289062 282.933594 177.636719 283.550781 178.050781 C 284.171875 178.46875 284.746094 178.9375 285.273438 179.464844 C 285.800781 179.992188 286.273438 180.566406 286.6875 181.1875 C 287.101562 181.808594 287.449219 182.460938 287.738281 183.152344 C 288.023438 183.839844 288.238281 184.550781 288.382812 185.28125 C 288.527344 186.015625 288.601562 186.753906 288.601562 187.5 Z M 288.601562 187.5 " fill-opacity="1" fill-rule="nonzero"/><path fill="#ffffff" d="M 252.984375 187.5 C 252.984375 188.246094 252.914062 188.984375 252.769531 189.714844 C 252.621094 190.445312 252.40625 191.15625 252.121094 191.847656 C 251.835938 192.535156 251.484375 193.191406 251.070312 193.808594 C 250.65625 194.429688 250.1875 195.003906 249.660156 195.53125 C 249.132812 196.058594 248.558594 196.53125 247.9375 196.945312 C 247.316406 197.359375 246.660156 197.710938 245.972656 197.996094 C 245.285156 198.28125 244.574219 198.496094 243.839844 198.640625 C 243.109375 198.785156 242.371094 198.859375 241.625 198.859375 C 240.878906 198.859375 240.140625 198.785156 239.410156 198.640625 C 238.675781 198.496094 237.964844 198.28125 237.277344 197.996094 C 236.589844 197.710938 235.933594 197.359375 235.3125 196.945312 C 234.691406 196.53125 234.121094 196.058594 233.589844 195.53125 C 233.0625 195.003906 232.59375 194.429688 232.179688 193.808594 C 231.765625 193.191406 231.414062 192.535156 231.128906 191.847656 C 230.84375 191.15625 230.628906 190.445312 230.484375 189.714844 C 230.335938 188.984375 230.265625 188.246094 230.265625 187.5 C 230.265625 186.753906 230.335938 186.015625 230.484375 185.28125 C 230.628906 184.550781 230.84375 183.839844 231.128906 183.152344 C 231.414062 182.460938 231.765625 181.808594 232.179688 181.1875 C 232.59375 180.566406 233.0625 179.992188 233.589844 179.464844 C 234.121094 178.9375 234.691406 178.46875 235.3125 178.050781 C 235.933594 177.636719 236.589844 177.289062 237.277344 177.003906 C 237.964844 176.71875 238.675781 176.5 239.410156 176.355469 C 240.140625 176.210938 240.878906 176.136719 241.625 176.136719 C 242.371094 176.136719 243.109375 176.210938 243.839844 176.355469 C 244.574219 176.5 245.285156 176.71875 245.972656 177.003906 C 246.660156 177.289062 247.316406 177.636719 247.9375 178.050781 C 248.558594 178.46875 249.132812 178.9375 249.660156 179.464844 C 250.1875 179.992188 250.65625 180.566406 251.070312 181.1875 C 251.484375 181.808594 251.835938 182.460938 252.121094 183.152344 C 252.40625 183.839844 252.621094 184.550781 252.769531 185.28125 C 252.914062 186.015625 252.984375 186.753906 252.984375 187.5 Z M 252.984375 187.5 " fill-opacity="1" fill-rule="nonzero"/></svg>